<?xml version="1.0" standalone="no"?>
<!DOCTYPE svg PUBLIC "-//W3C//DTD SVG 20010904//EN"
 "http://www.w3.org/TR/2001/REC-SVG-20010904/DTD/svg10.dtd">
<svg version="1.0" xmlns="http://www.w3.org/2000/svg"
 width="766.000000pt" height="1077.000000pt" viewBox="0 0 766.000000 1077.000000"
 preserveAspectRatio="xMidYMid meet">
<g transform="translate(0.000000,1077.000000) scale(0.100000,-0.100000)"
fill="#000000" stroke="none">
<path d="M3770 10689 c-35 -14 -88 -67 -111 -112 -24 -46 -27 -138 -6 -188 18
-44 72 -98 114 -116 l33 -13 0 -484 0 -483 -31 -7 c-17 -3 -52 -6 -78 -6 -65
0 -291 -34 -391 -60 -216 -54 -457 -148 -634 -246 -712 -398 -1221 -1120
-1388 -1968 -12 -61 -22 -112 -23 -114 -2 -1 -66 -7 -144 -12 -439 -30 -789
-194 -978 -458 -74 -102 -105 -196 -111 -327 -5 -126 9 -198 59 -305 l30 -65
20 -370 c73 -1412 137 -2082 231 -2429 32 -117 84 -214 136 -253 38 -29 51
-33 106 -33 85 0 147 32 230 120 76 81 140 186 191 312 110 275 139 560 169
1681 7 262 16 480 19 483 4 4 57 9 119 11 l113 4 87 -178 c86 -177 216 -388
317 -513 218 -271 472 -500 719 -647 89 -54 92 -57 77 -77 -96 -135 -159 -270
-202 -434 -20 -80 -25 -121 -25 -232 -2 -345 120 -624 381 -873 195 -185 444
-313 731 -374 123 -26 527 -26 650 0 287 61 536 189 731 374 256 244 379 521
380 853 1 248 -61 441 -214 671 l-17 26 104 61 c422 252 796 665 1037 1146 43
87 79 164 79 171 0 16 103 26 185 18 l60 -5 54 -537 c115 -1160 167 -1427 329
-1706 57 -97 215 -261 283 -293 54 -26 146 -29 188 -7 105 54 158 203 197 555
16 138 18 286 20 1357 l2 1201 23 59 c21 51 23 75 23 198 1 120 -3 148 -22
199 -78 211 -277 393 -553 505 -160 65 -285 92 -529 116 l-56 6 -21 112 c-203
1031 -902 1858 -1828 2161 -206 67 -342 93 -647 122 l-58 5 0 485 0 484 28 11
c33 12 86 62 114 107 26 42 28 131 4 187 -21 50 -71 103 -113 121 -37 16 -156
18 -193 3z m475 -1558 c516 -88 959 -321 1340 -705 410 -414 681 -963 777
-1577 19 -125 22 -183 22 -434 0 -251 -3 -309 -22 -434 -96 -614 -367 -1163
-777 -1577 -388 -391 -835 -623 -1370 -711 -156 -25 -534 -25 -690 0 -535 88
-982 320 -1370 711 -410 414 -681 963 -777 1577 -19 125 -22 183 -22 434 0
251 3 309 22 434 96 614 367 1163 777 1577 387 390 856 633 1365 708 164 24
163 24 390 21 160 -2 246 -8 335 -24z m-2998 -2408 c-39 -433 7 -865 133
-1251 21 -64 36 -119 33 -122 -10 -11 -289 -11 -382 -1 -670 78 -1077 524
-864 946 142 281 560 487 997 494 l89 1 -6 -67z m5403 57 c526 -65 910 -367
910 -715 0 -348 -384 -650 -910 -715 -78 -9 -330 -15 -330 -7 0 2 18 58 39
124 127 392 173 822 134 1256 l-6 67 39 0 c22 0 78 -5 124 -10z m853 -2210 c2
-1032 -3 -1197 -43 -1470 -42 -285 -105 -370 -228 -313 -55 25 -180 159 -235
250 -160 268 -206 505 -322 1666 -31 302 -54 551 -52 553 1 2 36 8 77 14 302
45 588 177 750 345 l35 36 8 -48 c4 -26 9 -491 10 -1033z m-7066 880 c94 -54
236 -113 338 -140 96 -25 245 -50 298 -50 l38 0 -6 -207 c-3 -115 -10 -372
-15 -573 -20 -734 -53 -1081 -121 -1283 -84 -253 -249 -467 -359 -467 -39 0
-84 37 -113 95 -102 205 -182 897 -251 2195 -14 256 -28 495 -30 532 l-5 67
76 -64 c42 -35 109 -82 150 -105z m2571 -1741 c142 -54 341 -105 507 -131 198
-30 512 -30 710 0 235 37 477 108 686 205 l77 35 42 -74 c56 -98 98 -210 121
-319 26 -124 26 -346 0 -470 -90 -439 -458 -780 -971 -902 -155 -36 -409 -43
-575 -15 -555 95 -977 481 -1055 965 -36 221 27 521 155 739 l45 77 77 -36
c43 -19 124 -53 181 -74z"/>
<path d="M3680 8839 c-296 -26 -564 -101 -835 -233 -245 -120 -447 -266 -622
-449 -747 -782 -747 -1942 0 -2724 278 -291 669 -515 1076 -618 453 -114 924
-93 1372 60 133 46 378 166 494 242 201 133 400 316 535 493 595 781 532 1830
-153 2547 -278 291 -669 515 -1076 618 -258 65 -529 87 -791 64z m-390 -770
c127 -20 231 -89 280 -186 37 -71 35 -177 -3 -254 -71 -145 -212 -241 -396
-270 -238 -36 -457 129 -438 332 15 166 178 330 367 368 89 18 94 19 110 20 8
0 44 -4 80 -10z m1321 -3 c264 -56 456 -308 395 -518 -21 -74 -95 -156 -168
-188 -72 -32 -203 -39 -284 -15 -240 69 -416 295 -374 480 28 126 117 211 250
241 73 16 103 16 181 0z"/>
<path d="M1960 1589 c0 -50 128 -126 295 -174 195 -56 503 -104 870 -137 208
-18 1272 -18 1480 0 367 33 675 81 870 137 167 48 295 124 295 174 0 20 -5 21
-90 21 -74 0 -96 -4 -118 -19 -74 -53 -494 -109 -990 -131 -280 -13 -1134 -13
-1414 0 -496 22 -916 78 -990 131 -22 15 -44 19 -118 19 -85 0 -90 -1 -90 -21z"/>
<path d="M3280 803 c-417 -30 -873 -92 -904 -123 -12 -12 2 -15 264 -53 204
-29 235 -31 335 -23 180 14 1603 13 1790 -2 372 -30 605 -60 722 -94 88 -25
107 -42 76 -68 -63 -51 -500 -108 -991 -130 -280 -13 -1134 -13 -1414 0 -496
22 -916 78 -990 131 -22 15 -44 19 -118 19 -85 0 -90 -1 -90 -21 0 -50 128
-126 291 -173 186 -53 447 -96 804 -132 213 -22 1163 -31 1415 -15 672 45
1143 146 1269 271 43 44 43 96 0 140 -125 124 -598 226 -1257 270 -137 9
-1087 12 -1202 3z"/>
</g>
</svg>
